<svg version="1.1" id="Layer_1" xmlns="http://www.w3.org/2000/svg" xmlns:xlink="http://www.w3.org/1999/xlink" x="0px" y="0px"
	 width="100%" viewBox="0 0 1204 838" enable-background="new 0 0 1204 838" xml:space="preserve">
<path fill="#F5C34F" opacity="1.000000" stroke="none" 
	d="
M48.000000,839.000000 
	C32.335556,839.000000 16.671110,839.000000 1.004998,839.000000 
	C1.003332,559.708496 1.003332,280.416992 1.003332,1.062746 
	C402.234558,1.062746 803.469177,1.062746 1204.851807,1.062746 
	C1204.851807,280.333282 1204.851807,559.666626 1204.851807,839.000000 
	C1186.917603,839.000000 1168.920044,839.000000 1150.465332,838.739502 
	C1149.962402,838.311401 1149.916504,838.143921 1149.953491,837.515625 
	C1149.421753,826.000977 1148.755981,814.949524 1148.206299,803.892334 
	C1147.573975,791.171143 1147.132935,778.440002 1146.443970,765.722168 
	C1145.827026,754.332947 1145.195923,742.937195 1144.183228,731.578857 
	C1143.206543,720.624268 1141.672119,709.720581 1140.494629,698.782471 
	C1138.961060,684.535706 1137.528442,670.278015 1136.078979,656.022278 
	C1135.893921,654.201172 1136.001221,652.345215 1135.748413,650.536865 
	C1133.887085,637.221313 1132.171143,623.880371 1129.983154,610.617737 
	C1128.879639,603.929016 1127.049438,597.342529 1125.256958,590.789368 
	C1123.031250,582.652283 1120.192261,574.674133 1118.187744,566.487854 
	C1115.738037,556.483154 1113.871216,546.335327 1111.767212,536.246338 
	C1109.234253,524.100342 1106.701782,511.954285 1104.197266,499.802490 
	C1102.024780,489.261810 1099.738892,478.741241 1097.782227,468.160187 
	C1095.698242,456.891449 1093.966431,445.557861 1092.030151,434.261292 
	C1091.337646,430.220856 1090.830078,426.106567 1089.665527,422.196564 
	C1084.875732,406.117249 1074.891357,392.119293 1071.296143,375.464355 
	C1068.979614,364.732788 1064.275635,354.468781 1062.464722,343.688934 
	C1060.510620,332.056458 1058.373169,320.581085 1054.202515,309.570526 
	C1048.533081,294.603851 1042.741333,279.679596 1036.722412,264.850647 
	C1032.062622,253.370270 1027.223511,241.947708 1021.997070,230.716843 
	C1017.696350,221.475296 1013.540833,211.973816 1007.759338,203.675552 
	C1003.260254,197.217987 996.277222,192.516327 990.554810,186.875351 
	C987.544006,183.907318 984.142639,182.913162 979.963867,182.628448 
	C973.194641,182.167267 968.457703,185.781982 963.971130,189.714325 
	C956.744202,196.048553 953.898193,205.153244 950.021667,213.545395 
	C945.516418,223.298706 941.264404,233.168884 936.765076,242.924988 
	C931.858948,253.563232 926.560852,264.026367 921.872131,274.757446 
	C917.879639,283.895020 914.853821,293.458344 910.786865,302.559174 
	C904.038330,317.661163 896.828552,332.557861 889.748962,347.510681 
	C886.862610,353.606934 883.103821,358.237152 875.174133,357.044708 
	C868.851379,356.093842 862.419434,355.887939 856.046387,355.247742 
	C843.104736,353.947571 830.178467,352.490479 817.229858,351.266296 
	C808.523254,350.443176 799.791748,349.874023 791.066956,349.254303 
	C781.181458,348.552124 771.298157,347.772125 761.400940,347.291443 
	C745.022583,346.495911 728.636047,345.853973 712.249084,345.252441 
	C674.059265,343.850403 635.790894,347.341766 597.626160,343.225952 
	C589.386108,342.337280 580.977234,342.958069 572.646423,342.989655 
	C567.985718,343.007294 563.291992,342.936829 558.672729,343.446259 
	C550.047058,344.397522 541.484985,346.572052 532.860962,346.782654 
	C491.740753,347.786835 450.544891,345.241028 409.506714,350.386414 
	C396.244324,352.049255 382.756897,352.015350 369.363098,352.501373 
	C358.544952,352.893921 347.710999,353.062225 336.888519,352.938965 
	C334.822296,352.915436 331.999725,351.609406 330.856018,349.968262 
	C325.827637,342.752930 320.836121,335.442017 316.651337,327.721252 
	C302.385773,301.401703 288.655731,274.791321 274.329681,248.505341 
	C267.869720,236.652328 261.093903,224.876663 253.359085,213.838318 
	C244.621841,201.369400 233.567642,192.037415 216.491333,194.927414 
	C211.941422,195.697464 208.277435,197.276855 205.680420,201.239517 
	C202.236038,206.495163 198.593567,211.620926 195.039093,216.804474 
	C189.153824,225.387100 184.255524,234.376526 181.645782,244.610077 
	C178.485077,257.004089 174.599915,269.218262 168.165115,280.382538 
	C161.275192,292.336426 156.314423,305.022095 152.193008,318.166809 
	C148.473114,330.030945 144.028030,341.679657 139.579895,353.299774 
	C136.007217,362.632874 131.582932,371.648621 128.206039,381.045807 
	C124.265442,392.011658 120.820671,403.172180 117.593475,414.372925 
	C114.762863,424.197174 112.620010,434.217438 110.007263,444.107269 
	C107.650284,453.028992 105.400284,462.001129 102.504456,470.752960 
	C98.543449,482.724060 93.707672,494.408295 89.838333,506.406250 
	C87.204292,514.573792 85.504311,523.049377 83.528557,531.420654 
	C80.983185,542.205444 78.175545,552.952026 76.245384,563.850525 
	C74.754311,572.269775 74.683136,580.930603 73.526154,589.422058 
	C72.580162,596.364990 71.138199,603.255859 69.602890,610.099548 
	C67.192719,620.842834 64.389877,631.498413 62.000240,642.246033 
	C60.293957,649.920105 59.009872,657.687622 57.505894,665.407288 
	C55.762604,674.355347 53.054771,683.230774 52.416607,692.254517 
	C51.107807,710.761047 50.662243,729.340759 50.304226,747.898865 
	C49.915436,768.052246 50.212051,788.218628 49.847176,808.372742 
	C49.668346,818.250549 48.668636,828.113464 47.975895,838.235229 
	C47.940899,838.658142 47.970448,838.829041 48.000000,839.000000 
z"/>
<path fill="#303030" opacity="1.000000" stroke="none" 
	d="
M1149.870728,837.976379 
	C1149.916504,838.143921 1149.962402,838.311401 1150.004150,838.739502 
	C782.969116,839.000000 415.938171,839.000000 48.453632,839.000000 
	C47.970448,838.829041 47.940899,838.658142 48.441795,838.244080 
	C204.624557,838.000610 360.276886,838.003113 515.929199,837.999329 
	C727.243042,837.994202 938.556885,837.984253 1149.870728,837.976379 
z"/>
<path fill="#181818" opacity="1.000000" stroke="none" 
	d="
M1149.953491,837.515625 
	C938.556885,837.984253 727.243042,837.994202 515.929199,837.999329 
	C360.276886,838.003113 204.624557,838.000610 48.506340,837.992065 
	C48.668636,828.113464 49.668346,818.250549 49.847176,808.372742 
	C50.212051,788.218628 49.915436,768.052246 50.304226,747.898865 
	C50.662243,729.340759 51.107807,710.761047 52.416607,692.254517 
	C53.054771,683.230774 55.762604,674.355347 57.505894,665.407288 
	C59.009872,657.687622 60.293957,649.920105 62.000240,642.246033 
	C64.389877,631.498413 67.192719,620.842834 69.602890,610.099548 
	C71.138199,603.255859 72.580162,596.364990 73.526154,589.422058 
	C74.683136,580.930603 74.754311,572.269775 76.245384,563.850525 
	C78.175545,552.952026 80.983185,542.205444 83.528557,531.420654 
	C85.504311,523.049377 87.204292,514.573792 89.838333,506.406250 
	C93.707672,494.408295 98.543449,482.724060 102.504456,470.752960 
	C105.400284,462.001129 107.650284,453.028992 110.007263,444.107269 
	C112.620010,434.217438 114.762863,424.197174 117.593475,414.372925 
	C120.820671,403.172180 124.265442,392.011658 128.206039,381.045807 
	C131.582932,371.648621 136.007217,362.632874 139.579895,353.299774 
	C144.028030,341.679657 148.473114,330.030945 152.193008,318.166809 
	C156.314423,305.022095 161.275192,292.336426 168.165115,280.382538 
	C174.599915,269.218262 178.485077,257.004089 181.645782,244.610077 
	C184.255524,234.376526 189.153824,225.387100 195.039093,216.804474 
	C198.593567,211.620926 202.236038,206.495163 205.680420,201.239517 
	C208.277435,197.276855 211.941422,195.697464 216.491333,194.927414 
	C233.567642,192.037415 244.621841,201.369400 253.359085,213.838318 
	C261.093903,224.876663 267.869720,236.652328 274.329681,248.505341 
	C288.655731,274.791321 302.385773,301.401703 316.651337,327.721252 
	C320.836121,335.442017 325.827637,342.752930 330.856018,349.968262 
	C331.999725,351.609406 334.822296,352.915436 336.888519,352.938965 
	C347.710999,353.062225 358.544952,352.893921 369.363098,352.501373 
	C382.756897,352.015350 396.244324,352.049255 409.506714,350.386414 
	C450.544891,345.241028 491.740753,347.786835 532.860962,346.782654 
	C541.484985,346.572052 550.047058,344.397522 558.672729,343.446259 
	C563.291992,342.936829 567.985718,343.007294 572.646423,342.989655 
	C580.977234,342.958069 589.386108,342.337280 597.626160,343.225952 
	C635.790894,347.341766 674.059265,343.850403 712.249084,345.252441 
	C728.636047,345.853973 745.022583,346.495911 761.400940,347.291443 
	C771.298157,347.772125 781.181458,348.552124 791.066956,349.254303 
	C799.791748,349.874023 808.523254,350.443176 817.229858,351.266296 
	C830.178467,352.490479 843.104736,353.947571 856.046387,355.247742 
	C862.419434,355.887939 868.851379,356.093842 875.174133,357.044708 
	C883.103821,358.237152 886.862610,353.606934 889.748962,347.510681 
	C896.828552,332.557861 904.038330,317.661163 910.786865,302.559174 
	C914.853821,293.458344 917.879639,283.895020 921.872131,274.757446 
	C926.560852,264.026367 931.858948,253.563232 936.765076,242.924988 
	C941.264404,233.168884 945.516418,223.298706 950.021667,213.545395 
	C953.898193,205.153244 956.744202,196.048553 963.971130,189.714325 
	C968.457703,185.781982 973.194641,182.167267 979.963867,182.628448 
	C984.142639,182.913162 987.544006,183.907318 990.554810,186.875351 
	C996.277222,192.516327 1003.260254,197.217987 1007.759338,203.675552 
	C1013.540833,211.973816 1017.696350,221.475296 1021.997070,230.716843 
	C1027.223511,241.947708 1032.062622,253.370270 1036.722412,264.850647 
	C1042.741333,279.679596 1048.533081,294.603851 1054.202515,309.570526 
	C1058.373169,320.581085 1060.510620,332.056458 1062.464722,343.688934 
	C1064.275635,354.468781 1068.979614,364.732788 1071.296143,375.464355 
	C1074.891357,392.119293 1084.875732,406.117249 1089.665527,422.196564 
	C1090.830078,426.106567 1091.337646,430.220856 1092.030151,434.261292 
	C1093.966431,445.557861 1095.698242,456.891449 1097.782227,468.160187 
	C1099.738892,478.741241 1102.024780,489.261810 1104.197266,499.802490 
	C1106.701782,511.954285 1109.234253,524.100342 1111.767212,536.246338 
	C1113.871216,546.335327 1115.738037,556.483154 1118.187744,566.487854 
	C1120.192261,574.674133 1123.031250,582.652283 1125.256958,590.789368 
	C1127.049438,597.342529 1128.879639,603.929016 1129.983154,610.617737 
	C1132.171143,623.880371 1133.887085,637.221313 1135.748413,650.536865 
	C1136.001221,652.345215 1135.893921,654.201172 1136.078979,656.022278 
	C1137.528442,670.278015 1138.961060,684.535706 1140.494629,698.782471 
	C1141.672119,709.720581 1143.206543,720.624268 1144.183228,731.578857 
	C1145.195923,742.937195 1145.827026,754.332947 1146.443970,765.722168 
	C1147.132935,778.440002 1147.573975,791.171143 1148.206299,803.892334 
	C1148.755981,814.949524 1149.421753,826.000977 1149.953491,837.515625 
M948.529907,555.022766 
	C946.951843,553.703125 945.567688,551.960999 943.763855,551.133301 
	C932.933044,546.163330 922.044373,541.314026 911.100281,536.597900 
	C899.941101,531.789124 888.288147,528.787720 876.080200,529.102966 
	C861.192932,529.487366 846.281616,529.937927 831.456055,531.226379 
	C825.536560,531.740845 819.634644,534.128235 814.052307,536.450500 
	C806.129456,539.746460 798.334229,543.450378 790.809143,547.572754 
	C783.288818,551.692444 775.594360,555.269104 769.578186,562.173889 
	C760.016296,573.148193 751.325684,584.670227 744.833435,597.563416 
	C737.619507,611.889709 732.365967,627.022705 731.847473,643.395935 
	C731.738403,646.841248 730.506226,650.283569 730.627319,653.697571 
	C731.014893,664.616943 731.029236,675.639221 732.671082,686.395386 
	C733.938110,694.696350 737.363220,702.680298 739.961060,710.762756 
	C744.090576,723.610291 751.178772,734.790771 759.917908,744.927002 
	C770.205933,756.859741 782.668518,766.305115 795.730835,774.921753 
	C810.298828,784.531616 825.964844,791.203308 843.847900,791.175903 
	C846.339294,791.172058 848.905701,791.015381 851.310120,791.527283 
	C865.715881,794.594177 879.987549,792.578552 894.255798,790.586243 
	C897.492554,790.134338 900.755798,789.458862 903.839478,788.399109 
	C914.735352,784.654297 925.639221,780.906677 936.385376,776.759521 
	C945.883179,773.094177 955.308777,769.088013 962.247803,761.133118 
	C965.878418,756.970947 969.021423,752.329529 972.967102,748.505493 
	C989.746704,732.243530 997.063538,711.822998 999.780273,689.248657 
	C1000.068542,686.853638 1000.903442,684.525146 1001.203491,682.130554 
	C1002.044556,675.418396 1004.146851,668.484802 1003.213196,662.004333 
	C1000.867920,645.725281 997.796997,629.472595 993.655762,613.563721 
	C991.605530,605.687378 987.734863,597.627380 982.608826,591.347473 
	C972.260254,578.669312 960.491394,567.150635 948.529907,555.022766 
M495.080322,730.672913 
	C503.293243,718.661194 509.207550,705.774597 512.465271,691.423401 
	C515.283264,679.009460 517.948181,666.581970 517.570312,653.929871 
	C517.256653,643.426697 515.506287,632.899353 513.576904,622.534607 
	C512.257629,615.447266 510.314575,608.253174 507.249725,601.768921 
	C503.238525,593.282654 498.368378,585.079407 492.939545,577.411621 
	C481.417542,561.137756 465.734314,549.486816 447.921021,541.082947 
	C438.429230,536.604919 428.134399,533.577759 417.934692,530.922668 
	C407.883087,528.306274 397.547699,525.827515 387.241241,525.349670 
	C368.425262,524.477051 349.571655,525.551758 332.462677,534.976501 
	C321.780914,540.860657 310.664429,546.271057 300.950867,553.513977 
	C289.957855,561.710876 280.855530,572.118713 273.913910,584.266357 
	C268.069214,594.494446 262.843597,604.917603 259.859039,616.358032 
	C258.432709,621.825562 257.252899,627.363464 255.652283,632.778137 
	C252.007843,645.106812 249.690384,657.590515 250.472061,670.511292 
	C250.521027,671.320618 250.747437,672.120361 250.906464,672.921570 
	C252.611282,681.511230 254.000778,690.179626 256.117859,698.666565 
	C258.142395,706.782593 260.032745,715.137634 263.615601,722.603699 
	C267.469116,730.633850 273.541504,737.565063 278.084839,745.304932 
	C289.503326,764.757202 306.051697,776.783569 328.206787,781.060181 
	C332.357208,781.861389 336.531647,782.540527 340.675781,783.371643 
	C350.032867,785.248169 359.302795,788.151733 368.744293,788.885010 
	C385.700226,790.201904 402.830475,790.277039 419.236938,784.746887 
	C430.268890,781.028320 441.554108,777.430359 451.725311,771.928467 
	C469.518799,762.303406 483.729279,748.352173 495.080322,730.672913 
z"/>
<path fill="#FCFCFC" opacity="1.000000" stroke="none" 
	d="
M948.919067,555.088257 
	C960.491394,567.150635 972.260254,578.669312 982.608826,591.347473 
	C987.734863,597.627380 991.605530,605.687378 993.655762,613.563721 
	C997.796997,629.472595 1000.867920,645.725281 1003.213196,662.004333 
	C1004.146851,668.484802 1002.044556,675.418396 1001.203491,682.130554 
	C1000.903442,684.525146 1000.068542,686.853638 999.780273,689.248657 
	C997.063538,711.822998 989.746704,732.243530 972.967102,748.505493 
	C969.021423,752.329529 965.878418,756.970947 962.247803,761.133118 
	C955.308777,769.088013 945.883179,773.094177 936.385376,776.759521 
	C925.639221,780.906677 914.735352,784.654297 903.839478,788.399109 
	C900.755798,789.458862 897.492554,790.134338 894.255798,790.586243 
	C879.987549,792.578552 865.715881,794.594177 851.310120,791.527283 
	C848.905701,791.015381 846.339294,791.172058 843.847900,791.175903 
	C825.964844,791.203308 810.298828,784.531616 795.730835,774.921753 
	C782.668518,766.305115 770.205933,756.859741 759.917908,744.927002 
	C751.178772,734.790771 744.090576,723.610291 739.961060,710.762756 
	C737.363220,702.680298 733.938110,694.696350 732.671082,686.395386 
	C731.029236,675.639221 731.014893,664.616943 730.627319,653.697571 
	C730.506226,650.283569 731.738403,646.841248 731.847473,643.395935 
	C732.365967,627.022705 737.619507,611.889709 744.833435,597.563416 
	C751.325684,584.670227 760.016296,573.148193 769.578186,562.173889 
	C775.594360,555.269104 783.288818,551.692444 790.809143,547.572754 
	C798.334229,543.450378 806.129456,539.746460 814.052307,536.450500 
	C819.634644,534.128235 825.536560,531.740845 831.456055,531.226379 
	C846.281616,529.937927 861.192932,529.487366 876.080200,529.102966 
	C888.288147,528.787720 899.941101,531.789124 911.100281,536.597900 
	C922.044373,541.314026 932.933044,546.163330 943.763855,551.133301 
	C945.567688,551.960999 946.951843,553.703125 948.919067,555.088257 
M878.113647,756.933411 
	C880.098511,756.342407 882.058289,755.642822 884.072388,755.178467 
	C894.748230,752.717712 902.345703,745.949585 907.839355,737.025085 
	C916.709534,722.615295 919.492310,706.173279 921.557678,689.761169 
	C922.653198,681.055664 922.163635,672.142822 922.267334,663.322144 
	C922.452881,647.536438 919.514709,632.171936 916.293396,616.792786 
	C914.496216,608.212585 911.774475,600.034241 906.863464,592.970703 
	C891.354309,570.663940 870.664246,559.611267 842.829224,564.642334 
	C832.541748,566.501648 823.768738,571.047974 816.330750,578.122314 
	C801.872864,591.873169 796.801636,609.922180 794.249512,628.836304 
	C792.995789,638.127747 792.306458,647.574951 792.366150,656.945251 
	C792.454346,670.803406 793.303345,684.663818 794.135742,698.504822 
	C794.336792,701.848206 795.220276,705.377258 796.699524,708.371582 
	C800.155396,715.367249 803.706543,722.396362 808.039124,728.862488 
	C818.374390,744.287048 833.234253,753.530029 851.293945,756.674561 
	C859.695679,758.137451 868.551086,756.994629 878.113647,756.933411 
z"/>
<path fill="#FBFBFB" opacity="1.000000" stroke="none" 
	d="
M494.718933,730.820312 
	C483.729279,748.352173 469.518799,762.303406 451.725311,771.928467 
	C441.554108,777.430359 430.268890,781.028320 419.236938,784.746887 
	C402.830475,790.277039 385.700226,790.201904 368.744293,788.885010 
	C359.302795,788.151733 350.032867,785.248169 340.675781,783.371643 
	C336.531647,782.540527 332.357208,781.861389 328.206787,781.060181 
	C306.051697,776.783569 289.503326,764.757202 278.084839,745.304932 
	C273.541504,737.565063 267.469116,730.633850 263.615601,722.603699 
	C260.032745,715.137634 258.142395,706.782593 256.117859,698.666565 
	C254.000778,690.179626 252.611282,681.511230 250.906464,672.921570 
	C250.747437,672.120361 250.521027,671.320618 250.472061,670.511292 
	C249.690384,657.590515 252.007843,645.106812 255.652283,632.778137 
	C257.252899,627.363464 258.432709,621.825562 259.859039,616.358032 
	C262.843597,604.917603 268.069214,594.494446 273.913910,584.266357 
	C280.855530,572.118713 289.957855,561.710876 300.950867,553.513977 
	C310.664429,546.271057 321.780914,540.860657 332.462677,534.976501 
	C349.571655,525.551758 368.425262,524.477051 387.241241,525.349670 
	C397.547699,525.827515 407.883087,528.306274 417.934692,530.922668 
	C428.134399,533.577759 438.429230,536.604919 447.921021,541.082947 
	C465.734314,549.486816 481.417542,561.137756 492.939545,577.411621 
	C498.368378,585.079407 503.238525,593.282654 507.249725,601.768921 
	C510.314575,608.253174 512.257629,615.447266 513.576904,622.534607 
	C515.506287,632.899353 517.256653,643.426697 517.570312,653.929871 
	C517.948181,666.581970 515.283264,679.009460 512.465271,691.423401 
	C509.207550,705.774597 503.293243,718.661194 494.718933,730.820312 
M345.957458,748.620728 
	C355.087250,754.454468 365.414703,757.151367 375.876312,758.483459 
	C385.270508,759.679626 394.764923,758.271301 403.856110,755.134033 
	C417.398193,750.460938 428.931122,742.821228 435.876831,730.139709 
	C440.159943,722.319580 445.128510,713.571411 445.396729,705.100830 
	C446.193420,679.942444 444.999329,654.709351 444.211243,629.517151 
	C443.788391,615.999634 440.003937,603.100037 433.853027,591.153076 
	C427.378754,578.577942 417.328766,569.838623 403.047760,566.875122 
	C398.563446,565.944580 393.944702,565.592163 389.519531,564.459473 
	C376.148926,561.036804 363.371094,563.376404 351.934814,570.103577 
	C334.309448,580.471313 322.634064,596.266907 318.407593,616.211975 
	C315.124573,631.704712 314.075134,647.690125 312.439392,663.498596 
	C312.046692,667.293762 313.309448,671.251160 313.736420,675.142151 
	C314.416840,681.343201 315.251556,687.537903 315.630554,693.759033 
	C316.267548,704.215454 319.712677,713.828613 324.030609,723.181274 
	C328.799744,733.511230 335.699371,742.062622 345.957458,748.620728 
z"/>
<path fill="#191919" opacity="1.000000" stroke="none" 
	d="
M877.657227,756.983154 
	C868.551086,756.994629 859.695679,758.137451 851.293945,756.674561 
	C833.234253,753.530029 818.374390,744.287048 808.039124,728.862488 
	C803.706543,722.396362 800.155396,715.367249 796.699524,708.371582 
	C795.220276,705.377258 794.336792,701.848206 794.135742,698.504822 
	C793.303345,684.663818 792.454346,670.803406 792.366150,656.945251 
	C792.306458,647.574951 792.995789,638.127747 794.249512,628.836304 
	C796.801636,609.922180 801.872864,591.873169 816.330750,578.122314 
	C823.768738,571.047974 832.541748,566.501648 842.829224,564.642334 
	C870.664246,559.611267 891.354309,570.663940 906.863464,592.970703 
	C911.774475,600.034241 914.496216,608.212585 916.293396,616.792786 
	C919.514709,632.171936 922.452881,647.536438 922.267334,663.322144 
	C922.163635,672.142822 922.653198,681.055664 921.557678,689.761169 
	C919.492310,706.173279 916.709534,722.615295 907.839355,737.025085 
	C902.345703,745.949585 894.748230,752.717712 884.072388,755.178467 
	C882.058289,755.642822 880.098511,756.342407 877.657227,756.983154 
z"/>
<path fill="#191919" opacity="1.000000" stroke="none" 
	d="
M345.810242,748.253784 
	C335.699371,742.062622 328.799744,733.511230 324.030609,723.181274 
	C319.712677,713.828613 316.267548,704.215454 315.630554,693.759033 
	C315.251556,687.537903 314.416840,681.343201 313.736420,675.142151 
	C313.309448,671.251160 312.046692,667.293762 312.439392,663.498596 
	C314.075134,647.690125 315.124573,631.704712 318.407593,616.211975 
	C322.634064,596.266907 334.309448,580.471313 351.934814,570.103577 
	C363.371094,563.376404 376.148926,561.036804 389.519531,564.459473 
	C393.944702,565.592163 398.563446,565.944580 403.047760,566.875122 
	C417.328766,569.838623 427.378754,578.577942 433.853027,591.153076 
	C440.003937,603.100037 443.788391,615.999634 444.211243,629.517151 
	C444.999329,654.709351 446.193420,679.942444 445.396729,705.100830 
	C445.128510,713.571411 440.159943,722.319580 435.876831,730.139709 
	C428.931122,742.821228 417.398193,750.460938 403.856110,755.134033 
	C394.764923,758.271301 385.270508,759.679626 375.876312,758.483459 
	C365.414703,757.151367 355.087250,754.454468 345.810242,748.253784 
z"/>
</svg>